<mxfile host="www.draw.io" modified="2019-10-23T10:58:06.028Z" agent="Mozilla/5.0 (Windows NT 10.0; Win64; x64) AppleWebKit/537.36 (KHTML, like Gecko) Chrome/77.0.3865.120 Safari/537.36" etag="ipQXIeuLeAj6LL0wUAO2" version="12.1.3" type="github" pages="1">
  <diagram id="g6CVoBPraKaxUtOreCra" name="Page-1">
    <mxGraphModel dx="1024" dy="566" grid="1" gridSize="10" guides="1" tooltips="1" connect="1" arrows="1" fold="1" page="1" pageScale="1" pageWidth="827" pageHeight="1169" math="0" shadow="0">
      <root>
        <mxCell id="0"/>
        <mxCell id="1" parent="0"/>
        <mxCell id="i6cdscL8NnU2U06RqQiy-1" value="" style="ellipse;shape=cloud;whiteSpace=wrap;html=1;shadow=1;" vertex="1" parent="1">
          <mxGeometry x="110" y="90" width="120" height="80" as="geometry"/>
        </mxCell>
        <mxCell id="i6cdscL8NnU2U06RqQiy-2" value="" style="shape=trapezoid;perimeter=trapezoidPerimeter;whiteSpace=wrap;html=1;shadow=1;" vertex="1" parent="1">
          <mxGeometry x="300" y="200" width="120" height="60" as="geometry"/>
        </mxCell>
      </root>
    </mxGraphModel>
  </diagram>
</mxfile>
